<svg xmlns="http://www.w3.org/2000/svg" width="135.9" height="126.78" viewBox="0 0 135.9 126.78">
  <title>shape</title>
  <polygon points="30.43 0 0 54.78 54.78 121.73 103.47 99.42 51.74 50.72 103.47 36.52 83.19 12.17 30.43 0" style="fill: #231f20"/>
  <polygon points="91.13 56.42 82.47 69.59 111.82 98.56 107.68 107.22 72.31 121.73 101.66 126.78 125.37 107.59 135.9 15.03 117.84 6.75 96.02 18.42 112.2 38.36 86.61 46.64 91.13 56.42" style="fill: #231f20"/>
  <polygon points="60.91 52.24 72.31 64.74 84.01 58.49 79.47 45.42 60.91 52.24" style="fill: #231f20"/>
  <path d="M7.93,103.35c13.64,3.08,33.93,3.08,43.81-2.2S67.43,93.59,68,80s1.43-41.35,4.36-51.47,33.74-21.8,33.74-21.8" style="fill: none;stroke: #e13366;stroke-linecap: round;stroke-miterlimit: 10;stroke-width: 4px"/>
</svg>
