<svg xmlns="http://www.w3.org/2000/svg" width="372.29" height="268.12" viewBox="0 0 372.29 268.12">
  <title>custom</title>
  <polygon points="61.93 108.58 54.08 196.51 165.57 218.49 297.64 253.04 200.11 168.25 335.16 180.81 335.16 135.27 272.35 108.58 229.95 33.2 176.56 97.58 61.93 108.58" style="fill: #231f20"/>
  <polygon points="205.63 33.2 167.45 80.25 71.6 88.82 48.22 88.82 41.2 160.52 9.25 43.62 127.7 16.35 205.63 33.2" style="fill: #231f20"/>
  <polygon points="259.4 59.21 282 94.28 323.3 111.42 329.54 24.14 238.36 33.2 259.4 59.21" style="fill: #231f20"/>
  <path d="M62.24,244.68s330.15,49.94,205-56.11S36.78,14.1,178.89,71.68,360.71,38.17,360.71,38.17" style="fill: none;stroke: #44abe0;stroke-linecap: round;stroke-miterlimit: 10;stroke-width: 13px"/>
</svg>
